<svg height="512" viewBox="0 0 54 60" width="512" xmlns="http://www.w3.org/2000/svg"><g id="Page-1" fill="none" fill-rule="evenodd"><g id="119---Rewind" fill-rule="nonzero" transform="translate(0 -1)"><path id="Shape" d="m1 34c-.00532157 14.0643878 11.1743122 25.58338 25.2325731 25.9985094s25.8981158-10.4241155 26.7227005-24.464311c.8245847-14.0401956-9.6650665-26.19085869-23.6752736-27.4241984l3.02-2.59c.5430437-.46444527.7970582-1.18332075.6663586-1.88583302-.1306995-.70251228-.6262567-1.281933-1.3-1.52-.6737432-.23806701-1.4233149-.09861225-1.9663586.36583302l-7 6c-.4443328.37997648-.7001539.93535161-.7001539 1.52 0 .5846484.2558211 1.1400235.7001539 1.52l7 6c.5430437.4644453 1.2926154.6039 1.9663586.365833.6737433-.238067 1.1693005-.8174877 1.3-1.52.1306996-.7025122-.1233149-1.4213877-.6663586-1.885833l-2.71-2.32c11.7324343 1.3909005 20.2714914 11.8002814 19.3417762 23.5782374s-10.9962089 20.7186726-22.8015651 20.2515731c-11.8053563-.4670995-21.13397625-10.1752176-21.1302111-21.9898105-.01680881-4.9486281 1.65134343-9.7555869 4.73-13.63.4430093-.560907.5531265-1.3155491.2888715-1.9796599s-.86273563-1.1367962-1.56999999-1.24c-.70726436-.1032039-1.41586218.1787529-1.85887151.7396599-3.64070446 4.5782933-5.6124193 10.2606414-5.59 16.11z" fill="#f44335"/><path id="Shape" d="m29.276 8.549c12.7739919 2.6451221 21.6090237 14.3483668 20.6533678 27.3582962s-11.405973 23.2965517-24.4293678 24.0467038c.5.028 1 .046 1.5.046 13.9136717.0011044 25.361241-10.953644 25.972006-24.853904.6107649-13.90026-9.8318586-25.81684368-23.692006-27.036096z" fill="#c81e1e"/><path id="Shape" d="m9 10c-.00166596.5849791.2543964 1.1410003.7 1.52l7 6c.8394728.7179702 2.1020298.6194728 2.82-.22.7179701-.8394728.6194728-2.1020298-.22-2.82l-5.23-4.48 5.23-4.48c.8394728-.71797017.9379702-1.98052718.22-2.82s-1.9805272-.93797017-2.82-.22l-7 6c-.4456036.37899974-.70166596.93502086-.7 1.52z" fill="#f44335"/><path id="Shape" d="m22 42h-1v-17c-.0001355-.7374384-.4060631-1.4149703-1.056234-1.7629549-.6501708-.3479847-1.4390817-.3099547-2.052766.0989549l-3 2c-.9035893.5966236-1.1682765 1.8039962-.5971523 2.723915s1.7706234 1.2182631 2.7061523.673085v13.267h-1c-1.1045695 0-2 .8954305-2 2s.8954305 2 2 2h6c1.1045695 0 2-.8954305 2-2s-.8954305-2-2-2z" fill="#ff9801"/><path id="Shape" d="m35 23h-3c-2.7614237 0-5 2.2385763-5 5v13c0 2.7614237 2.2385763 5 5 5h3c2.7614237 0 5-2.2385763 5-5v-13c0-2.7614237-2.2385763-5-5-5zm1 18c0 .5522847-.4477153 1-1 1h-3c-.5522847 0-1-.4477153-1-1v-13c0-.5522847.4477153-1 1-1h3c.5522847 0 1 .4477153 1 1z" fill="#ff9801"/><g fill="#000"><path id="Shape" d="m5.809 17.267c-3.78249791 4.7549742-5.83146978 10.6570996-5.809 16.733-.00318683 14.3095157 11.1580954 26.1363848 25.4438241 26.9611298s26.7339005-9.639101 28.3774827-23.8539132c1.6435823-14.2148122-8.0883067-27.24321935-22.1853068-29.7002166l1.316-1.129c.8565724-.6841204 1.2717932-1.78098138 1.0829801-2.8608363-.1888131-1.07985493-.9515925-1.97074209-1.9894836-2.32361475-1.037891-.35287265-2.1856147-.11153753-2.9934965.62945105l-7 6c-.664749.56994422-1.0473111 1.40187014-1.0473111 2.2775 0 .8756299.3825621 1.7075558 1.0473111 2.2775l7 6c1.2728878 1.0323388 3.1307109.889632 4.231-.325 1.003141-1.1704184.9560159-2.9105888-.109-4.025 10.313493 3.1723684 16.5443007 13.6445603 14.4118171 24.2221108-2.1324836 10.5775504-11.9341462 17.8175214-22.6711808 16.746005-10.7370346-1.0715163-18.91459201-10.105747-18.9146363-20.8961158-.01759232-4.7245871 1.57527688-9.3141385 4.516-13.012 1.0275258-1.2998022.8068022-3.1864742-.493-4.214-1.29980216-1.0275258-3.18647422-.8068022-4.214.493zm2.973 1.076c.20826628.1643849.34266717.4047984.37361363.6683123.03094647.2635138-.04409859.5285242-.20861363.7366877-3.22121943 4.0501562-4.96611563 9.0770938-4.947 14.252-.00269838 12.3512871 9.7504588 22.4995568 22.09212 22.9870994 12.3416613.4875427 22.8649665-8.8597296 23.8366018-21.17274s-7.9553431-23.1951293-20.2207218-24.6493594c-.4373752-.052005-.8572759.1882831-1.0340242.5917204-.1767484.4034373-.0687202.8750143.2660242 1.1612796l2.711 2.323c.3175561.2724081.4319592.7137113.2867417 1.1060886s-.5193543.6528735-.9377417.6529114c-.2385028.0009087-.4693165-.0843148-.65-.24l-7-6c-.2218162-.1899843-.3494927-.4674444-.3494927-.7595 0-.29205556.1276765-.56951572.3494927-.7595l7-6c.4193155-.35858224 1.0498231-.30980628 1.409.109.172953.20136012.2587527.46322169.2384948.72788798-.020258.26466628-.1449113.51041946-.3464948.68311202l-3.018 2.587c-.3034761.26287689-.4203036.68176999-.296679 1.0637634.1236246.38199342.4637276.65301003.863679.6882366 13.46916 1.1899024 23.5512006 12.8734733 22.7568195 26.371736-.794381 13.4982627-12.1772508 23.9186104-25.6930043 23.5204341-13.5157536-.3981763-24.2654442-11.4705528-24.2638152-24.9921701-.0209352-5.6248024 1.87564492-11.0888014 5.377-15.491.16423917-.2084177.40458051-.3430129.66810106-.3741477.26352054-.0311348.5286111.0437438.73689894.2081477z"/><path id="Shape" d="m20.276 2.046c-1.0787788-1.25584967-2.9709712-1.40040457-4.228-.323l-7 6c-.664749.56994422-1.04731115 1.40187014-1.04731115 2.2775 0 .8756299.38256215 1.7075558 1.04731115 2.2775l7 6c.8105033.7211529 1.9472073.9485327 2.972754.5946528 1.0255468-.3538799 1.780134-1.2338774 1.9734269-2.3014049.193293-1.0675275-.2048276-2.1562412-1.0411809-2.8472479l-4.344-3.724 4.343-3.722c.6044524-.5180499.9782161-1.25510437 1.0389855-2.04885839.0607695-.79375401-.1964388-1.57911541-.7149855-2.18314161zm-1.625 2.714-5.228 4.481c-.2214665.1899799-.3489094.46721281-.3489094.759 0 .2917872.1274429.5690201.3489094.759l5.228 4.482c.4188063.3591769.4675822.9896845.109 1.409-.1900027.2221378-.4676882.3500192-.76.35-.2385028.0009087-.4693165-.0843148-.65-.24l-7-6c-.2218162-.1899843-.3494927-.4674444-.3494927-.7595 0-.29205556.1276765-.56951572.3494927-.7595l7-6c.2715218-.23222263.6463077-.30195001.9831793-.18291651s.5846502.40874386.65.76c.0653498.35125613-.0616575.71069388-.3331793.94291651z"/><path id="Shape" d="m20.416 22.355c-.9755799-.5221501-2.1593775-.4648819-3.08.149l-3 2c-1.0998133.7333529-1.5900086 2.1001514-1.2069572 3.3653262.3830515 1.2651748 1.5490663 2.1305298 2.8709572 2.1306738v11c-1.6568542 0-3 1.3431458-3 3s1.3431458 3 3 3h6c1.6568542 0 3-1.3431458 3-3s-1.3431458-3-3-3v-16c.0000754-1.1062859-.6087-2.1228331-1.584-2.645zm2.584 21.645c0 .5522847-.4477153 1-1 1h-6c-.5522847 0-1-.4477153-1-1s.4477153-1 1-1h1c.5522847 0 1-.4477153 1-1v-13.268c-.0000091-.3572611-.1906116-.6873798-.500011-.8660064-.3093994-.1786265-.6905919-.1786241-.999989.0000064-.4565606.2636799-1.0394089.1275945-1.332-.311-.1472282-.2206502-.2007572-.4907558-.1488077-.7508787.0519496-.2601229.2051208-.488948.4258077-.6361213l3-2c.3068587-.2047322.7015085-.2239019 1.026765-.049874.3252566.174028.5282902.5129871.528235.881874v17c0 .5522847.4477153 1 1 1h1c.5522847 0 1 .4477153 1 1z"/><path id="Shape" d="m32 47h3c3.3123376-.0033074 5.9966926-2.6876624 6-6v-13c-.0033074-3.3123376-2.6876624-5.9966926-6-6h-3c-3.3123376.0033074-5.9966926 2.6876624-6 6v13c.0033074 3.3123376 2.6876624 5.9966926 6 6zm-4-19c0-2.209139 1.790861-4 4-4h3c2.209139 0 4 1.790861 4 4v13c0 2.209139-1.790861 4-4 4h-3c-2.209139 0-4-1.790861-4-4z"/><path id="Shape" d="m32 43h3c1.1045695 0 2-.8954305 2-2v-13c0-1.1045695-.8954305-2-2-2h-3c-1.1045695 0-2 .8954305-2 2v13c0 1.1045695.8954305 2 2 2zm0-15h3v13h-3z"/></g></g></g></svg>